<svg xmlns="http://www.w3.org/2000/svg" viewBox="0 0 512 512">
  <rect width="512" height="512" rx="120" fill="#2a1708" />
  <path
    d="M96 150c0-20.987 17.013-38 38-38h244c20.987 0 38 17.013 38 38v212c0 20.987-17.013 38-38 38H134c-20.987 0-38-17.013-38-38V150Z"
    fill="#fff6ea"
  />
  <path d="M162 112h50v288h-50z" fill="#c56822" />
  <path d="M212 112h50v288h-50z" fill="#fff6ea" />
  <path d="M262 112h50v288h-50z" fill="#c56822" />
  <path d="M312 112h50v288h-50z" fill="#fff6ea" />
  <path d="M134 210h244v92H134z" fill="#2a1708" opacity=".1" />
  <circle cx="256" cy="256" r="72" fill="#c56822" />
  <path
    d="M232 256c0-13.255 10.745-24 24-24s24 10.745 24 24-10.745 24-24 24-24-10.745-24-24Zm-46 92c7.571-31.258 35.766-54 70-54s62.429 22.742 70 54H186Z"
    fill="#2a1708"
  />
</svg>
